Coordinates
version=1
nRows=6
nColumns=36
inDegrees=yes

Units are S.I. units (second, meters, Newtons, ...)
If the header above contains a line with 'inDegrees', this indicates whether rotational values are in degrees (yes) or radians (no).

endheader
time	pelvis_tilt	pelvis_list	pelvis_rotation	pelvis_tx	pelvis_ty	pelvis_tz	hip_flexion_r	hip_adduction_r	hip_rotation_r	knee_angle_r	knee_angle_r_beta	ankle_angle_r	subtalar_angle_r	mtp_angle_r	hip_flexion_l	hip_adduction_l	hip_rotation_l	knee_angle_l	knee_angle_l_beta	ankle_angle_l	subtalar_angle_l	mtp_angle_l	lumbar_extension	lumbar_bending	lumbar_rotation	arm_flex_r	arm_add_r	arm_rot_r	elbow_flex_r	pro_sup_r	arm_flex_l	arm_add_l	arm_rot_l	elbow_flex_l	pro_sup_l
      0.00000000	      3.04636081	     -2.18620311	     -0.76286644	     -1.01235657	      1.28910928	     -0.07829820	     -0.76845004	      1.54098554	     -1.47514252	     14.06918129	      0.24555354	      3.01714621	    -23.12062480	     -5.88734287	     -2.84520322	     -1.51807632	      0.07236287	      8.75882712	      0.15287037	      6.45727914	    -15.54380681	     -5.88734287	    -12.53096404	      2.21184106	     -2.46844133	     10.94120018	     -3.26313805	     20.77580672	     27.46595832	     80.19218959	     12.95992877	     -0.77951526	     34.18649469	     31.11583736	     67.76191257
      0.00416670	      0.35906854	     -0.89635914	     -0.54645026	     -1.00985546	      1.28910005	     -0.07886093	      2.61632943	      0.54499780	     -0.47112739	     14.92693276	      0.26052412	      6.10851381	    -21.67873107	     -5.92163869	      1.28314409	      0.16914001	     -0.08978782	      9.92491463	      0.17322244	      6.51011514	    -14.49559657	     -5.92163869	     -9.19311889	      1.32270394	     -3.28979262	      9.94887021	     -2.71957106	     19.89975395	     26.37365436	     80.21872247	     12.56464738	     -0.39231127	     33.04867377	     29.27857838	     67.60949656
      0.00833330	     -0.15857570	      0.18597369	     -0.60750846	     -1.00923013	      1.28694723	     -0.07843100	      2.58342042	     -0.71955170	     -1.44229073	     13.74233366	      0.23984897	      7.02851408	    -19.82402853	     -6.08657629	      1.62962531	      1.15028357	     -1.25523631	      9.68561383	      0.16904585	      6.45933877	    -13.95333059	     -6.08657629	     -8.27997660	      0.02836348	     -3.16763143	      9.95568952	     -2.08996035	     19.72599959	     25.26888610	     79.64084745	     13.01014693	     -0.87113357	     33.55016171	     29.08082587	     67.42363838
      0.01250000	      0.09331489	      0.62372847	     -0.50985854	     -1.00963024	      1.28852032	     -0.07918744	      1.87930614	     -1.25148063	     -1.73001483	     13.05108209	      0.22778435	      7.77820756	    -18.70211250	     -6.56604309	      0.80316523	      1.73839420	     -1.18987981	      8.85630883	      0.15457175	      5.96890390	    -14.17338742	     -6.56604309	     -8.54761939	     -0.41968180	     -2.73543005	      9.61635275	     -2.07719313	     19.43750693	     25.17018162	     82.75041690	     13.95274158	     -1.70425814	     37.95538497	     29.19782966	     68.91741581
      0.01666670	      0.37303078	      0.75694122	     -0.37135663	     -1.01007502	      1.29052823	     -0.07918325	      1.19327019	     -1.29072996	     -1.61824511	     12.33527528	      0.21529117	      7.81136044	    -18.68955223	     -6.69478627	      0.20749613	      1.99071503	     -0.90003733	      8.27769310	      0.14447300	      5.58129188	    -14.51527400	     -6.69478627	     -8.99333502	     -0.45164318	     -2.74969310	      9.65166621	     -2.28102862	     20.85658387	     25.21186721	     82.57362421	     14.53919431	     -2.19298077	     40.54086044	     29.34743373	     69.30238543
      0.02083330	      0.70699975	      0.79183412	     -0.18552798	     -1.00981046	      1.29190872	     -0.07921214	      0.56472866	     -1.23050903	     -1.48280482	     11.82911184	      0.20645695	      7.76084135	    -18.75170740	     -6.78896972	     -0.29547146	      2.08402768	     -0.60504911	      7.92380820	      0.13829654	      5.14329093	    -14.92407437	     -6.78896972	     -9.51638090	     -0.46135786	     -2.70936991	      9.67513916	     -2.49691662	     21.97562492	     25.29623365	     82.05061961	     15.12349357	     -2.48148595	     42.79772024	     29.25022910	     69.45025719
